<svg xmlns="http://www.w3.org/2000/svg" xmlns:xlink="http://www.w3.org/1999/xlink" version="1.1" x="0px" y="0px" viewBox="0 0 64 80" style="enable-background:new 0 0 64 64;" xml:space="preserve"><g><rect x="16.1" y="36.7" width="6.3" height="2.5"/><rect x="25.8" y="36.7" width="22.1" height="2.5"/><rect x="16.1" y="43.5" width="20.4" height="2.5"/><rect x="40" y="43.5" width="7.9" height="2.5"/><rect x="16.1" y="50.4" width="11.3" height="2.4"/><rect x="30.9" y="50.4" width="17" height="2.4"/><path d="M56.4,13.7C52.7,10.2,49.1,6.6,45.4,3c-1.4-1.4-3.1-2.1-5.1-2.1l-25.9,0c-4.9,0-8.7,3.7-8.7,8.7c0,4.6,0,9.2,0,13.8l0,30.9   c0,2.5,0.9,4.7,2.5,6.3c1.6,1.6,3.8,2.5,6.3,2.5l34.8,0c5.1,0,8.8-3.7,8.8-8.8v-7.9c0-8.8,0-19.5,0-28.3   C58.2,16.4,57.6,14.9,56.4,13.7z M52.8,17.4c0.2,0.2,0.3,0.3,0.3,0.5l-11,0c-1.2,0-1.4-0.2-1.4-1.4V6.1c0.5,0,0.8,0.2,1.2,0.6   C45.5,10.2,49.1,13.8,52.8,17.4z M53,54.3c0,2.3-1.4,3.7-3.7,3.7l-34.8,0v1.4h0v-1.4c-1.1,0-2-0.3-2.7-1c-0.6-0.6-1-1.6-1-2.7   l0-30.9c0-4.6,0-9.2,0-13.8c0-2.1,1.4-3.5,3.5-3.5l20.9,0v10.5c0,4.1,2.5,6.6,6.6,6.6l11,0c0,7.1,0,16.1,0,23.3V54.3z"/><path d="M32.2,29.6c0.6-0.4,0.6-0.6,0.6-0.8c0-0.1,0-0.2,0-0.3l0-0.2c0-0.6,0-1.2-0.2-1.7c-0.7-1.6-2.5-2.3-4.2-2.8   c-0.5-0.1-2.2-0.6-2-2.2l0-0.4l0.2-0.3c0-0.1,0.1-0.1,0.2-0.2c0.1-0.2,0.2-0.2,0.3-0.3c0.4-0.4,0.6-0.9,0.8-1.5l0.2-0.5l0.4-0.2   c0.2-0.1,0.3-0.2,0.4-0.4c0.2-0.5,0.4-1,0.4-1.5c0-0.2,0-0.4-0.2-0.6l-0.4-0.4l0-0.6c0-0.7-0.2-1.3-0.5-1.8c-0.8-1.1-2.3-1.8-4-1.8   c-1.7,0-3.2,0.7-4,1.8c-0.4,0.5-0.6,1.1-0.5,1.8l0,0.6l-0.4,0.4C19,16,19,16.2,19,16.4c0,0.6,0.1,1.1,0.4,1.5   c0.1,0.2,0.2,0.3,0.4,0.4l0.4,0.2l0.2,0.5c0.2,0.5,0.5,1,0.8,1.4c0.1,0.1,0.1,0.2,0.2,0.2c0.1,0.1,0.2,0.2,0.3,0.3l0.2,0.3l0,0.4   c0.2,1.6-1.5,2.1-2,2.2c-1.3,0.4-3.5,1.2-4.2,2.8c-0.2,0.5-0.2,1.1-0.2,1.7l0,0.2c0,0.1,0,0.2,0,0.3c0,0.3,0.2,0.5,0.6,0.8   c0.3,0.2,0.6,0.4,1,0.5c3.3,1.5,7.7,1.8,11.6,0.8c1.1-0.3,2.5-0.6,3.4-1.3L32.2,29.6z"/></g><text x="0" y="79" fill="#000000" font-size="5px" font-weight="bold" font-family="'Helvetica Neue', Helvetica, Arial-Unicode, Arial, Sans-serif">Created by Delwar Hossain</text><text x="0" y="84" fill="#000000" font-size="5px" font-weight="bold" font-family="'Helvetica Neue', Helvetica, Arial-Unicode, Arial, Sans-serif">from the Noun Project</text></svg>